<svg width="26" height="26" viewBox="0 0 26 26" fill="none" xmlns="http://www.w3.org/2000/svg">
<rect x="1" y="1" width="24" height="24" rx="12" fill="#F4F8FF"/>
<path d="M13 3.4375C11.1087 3.4375 9.25991 3.99833 7.68736 5.04907C6.11482 6.09981 4.88917 7.59327 4.16541 9.34059C3.44164 11.0879 3.25227 13.0106 3.62125 14.8656C3.99022 16.7205 4.90096 18.4244 6.2383 19.7617C7.57564 21.099 9.27951 22.0098 11.1345 22.3788C12.9894 22.7477 14.9121 22.5584 16.6594 21.8346C18.4067 21.1108 19.9002 19.8852 20.9509 18.3126C22.0017 16.7401 22.5625 14.8913 22.5625 13C22.5595 10.4648 21.5511 8.03425 19.7584 6.24158C17.9658 4.44891 15.5352 3.44048 13 3.4375ZM13 21.4375C11.3312 21.4375 9.69992 20.9426 8.31238 20.0155C6.92484 19.0884 5.84338 17.7706 5.20477 16.2289C4.56616 14.6871 4.39907 12.9906 4.72463 11.3539C5.05019 9.71721 5.85379 8.21379 7.03379 7.03379C8.2138 5.85378 9.71722 5.05019 11.3539 4.72462C12.9906 4.39906 14.6871 4.56615 16.2289 5.20477C17.7706 5.84338 19.0884 6.92484 20.0155 8.31238C20.9427 9.69992 21.4375 11.3312 21.4375 13C21.435 15.237 20.5453 17.3817 18.9635 18.9635C17.3817 20.5453 15.237 21.435 13 21.4375ZM16.3975 13.3525C16.5028 13.458 16.562 13.6009 16.562 13.75C16.562 13.8991 16.5028 14.042 16.3975 14.1475L13.3975 17.1475C13.292 17.2528 13.1491 17.312 13 17.312C12.8509 17.312 12.708 17.2528 12.6025 17.1475L9.6025 14.1475C9.50314 14.0409 9.44905 13.8998 9.45162 13.7541C9.45419 13.6084 9.51323 13.4693 9.61629 13.3663C9.71935 13.2632 9.85839 13.2042 10.0041 13.2016C10.1498 13.199 10.2909 13.2531 10.3975 13.3525L12.4375 15.3916V9.25C12.4375 9.10082 12.4968 8.95774 12.6023 8.85225C12.7077 8.74676 12.8508 8.6875 13 8.6875C13.1492 8.6875 13.2923 8.74676 13.3978 8.85225C13.5032 8.95774 13.5625 9.10082 13.5625 9.25V15.3916L15.6025 13.3525C15.708 13.2472 15.8509 13.188 16 13.188C16.1491 13.188 16.292 13.2472 16.3975 13.3525Z" fill="#3B3B74"/>
<rect x="1" y="1" width="24" height="24" rx="12" stroke="#DCE5F1" stroke-width="0.5"/>
</svg>
