<svg width="28" height="28" viewBox="0 0 28 28" fill="none" xmlns="http://www.w3.org/2000/svg">
<g clip-path="url(#clip0_821_12398)">
<path d="M27.5602 17.4072C25.6904 24.9072 18.094 29.4716 10.5931 27.6014C3.09526 25.7316 -1.46913 18.1347 0.401488 10.6353C2.27047 3.13437 9.86682 -1.43037 17.3655 0.439436C24.8659 2.30924 29.43 9.90689 27.56 17.4073L27.5601 17.4072H27.5602Z" fill="#F7931A"/>
<path d="M20.1735 12.0049C20.4521 10.1418 19.0337 9.14032 17.0941 8.47224L17.7233 5.94851L16.187 5.56571L15.5745 8.02299C15.1706 7.92226 14.7559 7.82734 14.3436 7.73325L14.9606 5.25975L13.4253 4.87695L12.7957 7.39986C12.4615 7.32376 12.1333 7.24856 11.8148 7.16931L11.8166 7.16138L9.69801 6.63234L9.28934 8.27317C9.28934 8.27317 10.4291 8.53444 10.4051 8.55052C11.0272 8.70579 11.1397 9.11761 11.121 9.44402L10.4043 12.3191C10.4471 12.33 10.5027 12.3458 10.564 12.3704C10.5127 12.3577 10.4582 12.3438 10.4016 12.3302L9.39698 16.3578C9.32095 16.5469 9.12798 16.8305 8.69303 16.7228C8.70843 16.7451 7.57645 16.4441 7.57645 16.4441L6.81372 18.2027L8.81292 18.7011C9.18485 18.7943 9.54931 18.8919 9.90823 18.9837L9.27251 21.5363L10.807 21.9191L11.4366 19.3936C11.8558 19.5074 12.2626 19.6123 12.6609 19.7113L12.0334 22.225L13.5697 22.6078L14.2054 20.0599C16.8251 20.5557 18.7948 20.3558 19.624 17.9863C20.292 16.0786 19.5907 14.9782 18.2125 14.2607C19.2163 14.0292 19.9724 13.3689 20.174 12.0051L20.1735 12.0048L20.1735 12.0049ZM16.6634 16.9269C16.1887 18.8346 12.9767 17.8033 11.9353 17.5447L12.7789 14.1629C13.8202 14.4228 17.1596 14.9373 16.6635 16.9269H16.6634ZM17.1385 11.9773C16.7054 13.7125 14.0321 12.8309 13.1648 12.6148L13.9297 9.54762C14.7969 9.7638 17.5897 10.1673 17.1387 11.9773H17.1385Z" fill="white"/>
</g>
<defs>
<clipPath id="clip0_821_12398">
<rect width="28" height="28" fill="white"/>
</clipPath>
</defs>
</svg>
