<svg width="28" height="28" viewBox="0 0 28 28" fill="none" xmlns="http://www.w3.org/2000/svg">
<path d="M14.0418 0.151731V0.165524C14.0556 0.23449 14.0556 0.317248 14.0556 0.400007V10.3448C14.0418 10.4 14.0005 10.4138 13.9591 10.4414C13.6694 10.5793 13.3936 10.7035 13.1039 10.8276C12.7039 11.0069 12.2901 11.2 11.8901 11.3793L10.4418 12.0414C10.0418 12.2207 9.64184 12.4 9.25563 12.5793C8.78667 12.8 8.30391 13.0069 7.83494 13.2276C7.43494 13.4069 7.03494 13.6 6.62115 13.7793C6.29011 13.931 5.95908 14.069 5.64184 14.2207C5.61425 14.2345 5.58667 14.2483 5.55908 14.2483C5.54529 14.2483 5.54529 14.2483 5.53149 14.2345L5.90391 13.6138C6.62115 12.4276 7.3246 11.2552 8.04184 10.069C8.80046 8.80001 9.57287 7.53104 10.3315 6.26208C11.0349 5.08966 11.7522 3.91725 12.4556 2.74483C12.966 1.88966 13.4901 1.03449 14.0005 0.179317C14.0143 0.151731 14.028 0.137938 14.028 0.110352H14.0418C14.028 0.124145 14.0418 0.137938 14.0418 0.151731Z" fill="#8A92B2"/>
<path d="M22.5103 14.2346L22.524 14.2484L20.4965 15.4484L14.124 19.2139C14.0965 19.2277 14.0689 19.2415 14.0551 19.2553C14.0137 19.2553 14.0137 19.2139 14.0137 19.2002V19.076V10.5519C14.0137 10.5105 14.0137 10.4553 14.0275 10.4139C14.0413 10.3588 14.0827 10.3726 14.124 10.3864C14.3034 10.4691 14.4965 10.5519 14.6758 10.6346C15.2137 10.8829 15.7516 11.1312 16.2896 11.3657C16.7585 11.5726 17.2137 11.7933 17.6827 12.0002C18.1516 12.207 18.6206 12.4277 19.0896 12.6346C19.4896 12.8139 19.9034 13.0071 20.3034 13.1864C20.7034 13.3657 21.1172 13.5588 21.5172 13.7381C21.8344 13.876 22.1516 14.0277 22.4689 14.1657C22.4689 14.207 22.4827 14.2208 22.5103 14.2346Z" fill="#454A75"/>
<path d="M14.0413 27.8207C14.0413 27.8345 14.0275 27.8483 14.0275 27.8621H14.0137C14.0137 27.8345 13.9861 27.8207 13.9723 27.7931C13.1171 26.5931 12.2619 25.3793 11.4068 24.1793C10.5378 22.9517 9.65505 21.7103 8.78609 20.4828C7.94471 19.2965 7.08953 18.0965 6.24816 16.9103C6.02747 16.5931 5.80678 16.2896 5.58609 15.9724C5.57229 15.9448 5.5585 15.931 5.53091 15.8896C5.57229 15.8896 5.59988 15.9172 5.61367 15.931C6.81367 16.6345 7.99988 17.3379 9.19988 18.0414C10.5792 18.8552 11.9447 19.669 13.324 20.4828L14.0275 20.8965C14.0551 20.9241 14.0551 20.9517 14.0551 20.9793V27.6276C14.0551 27.6965 14.0551 27.7655 14.0413 27.8207Z" fill="#8A92B2"/>
<path d="M5.51721 14.2617V14.2479C5.95859 14.0548 6.38618 13.8479 6.82756 13.6548C7.39307 13.3928 7.95859 13.1445 8.52411 12.8824C8.9517 12.6893 9.39307 12.4824 9.82066 12.2893C10.4551 11.9997 11.0758 11.7238 11.7103 11.4341C12.1379 11.241 12.5655 11.0479 13.0069 10.841C13.3103 10.7031 13.6276 10.5652 13.931 10.4272C13.9586 10.4134 14 10.3997 14.0138 10.3721C14.0276 10.3721 14.0276 10.3859 14.0138 10.3997V19.1583C14.0138 19.1997 14 19.241 14.0276 19.2686C14 19.31 13.9724 19.2686 13.9586 19.2548C13.8345 19.1859 13.7103 19.1169 13.5862 19.0341C10.9241 17.4617 8.24825 15.8755 5.58618 14.3031C5.57238 14.2893 5.5448 14.2755 5.51721 14.2617Z" fill="#62688F"/>
<path d="M22.4827 15.8896H22.4965C22.4965 15.9172 22.4689 15.9448 22.4551 15.9724C19.9172 19.5448 17.3792 23.131 14.8413 26.7034C14.5792 27.0759 14.3034 27.4483 14.0413 27.8207C14.0275 27.8069 14.0275 27.7931 14.0275 27.7793V27.6965V21.0069V20.8828C14.6068 20.5379 15.1723 20.2069 15.7516 19.8621C17.9861 18.5379 20.2206 17.2276 22.4413 15.9034C22.4551 15.9172 22.4689 15.9034 22.4827 15.8896Z" fill="#62688F"/>
<path d="M14.0276 10.4005V10.3729V10.2902V0.27636C14.0276 0.234981 14.0138 0.207395 14.0414 0.166016C16.8414 4.81429 19.6414 9.44877 22.4276 14.097C22.4552 14.1384 22.4966 14.1936 22.5103 14.2488C22.3172 14.1798 22.1379 14.0833 21.9586 14.0005C21.7379 13.9039 21.5035 13.7936 21.2828 13.6971C21.1448 13.6281 20.9931 13.5729 20.8552 13.5039C20.6207 13.3936 20.3862 13.2971 20.1517 13.1867C20.0138 13.1315 19.8759 13.0626 19.7379 12.9936L18.8276 12.5798C18.6759 12.5108 18.5241 12.4419 18.3586 12.3729L17.6966 12.0833C17.5586 12.0281 17.4207 11.9591 17.2828 11.8902L16.3724 11.4764C16.2207 11.4074 16.069 11.3384 15.9034 11.2695L15.2414 10.9798C15.0897 10.9108 14.9517 10.8419 14.8 10.7729C14.5379 10.6488 14.2759 10.5246 14 10.4143C14.0414 10.4005 14.0276 10.4005 14.0276 10.4005Z" fill="#62688F"/>
</svg>
