<svg width="28" height="28" viewBox="0 0 28 28" fill="none" xmlns="http://www.w3.org/2000/svg">
<g clip-path="url(#clip0_821_12368)">
<path d="M14 0C6.26557 0 0 6.26557 0 14C0 21.7344 6.26557 28 14 28C21.7344 28 28 21.7344 28 14C28 6.26557 21.7344 0 14 0Z" fill="#0B223D"/>
<path d="M14.6198 19.9671C13.7707 19.9671 12.9903 19.8065 12.233 19.5081C11.4756 19.2098 10.81 18.7278 10.2592 18.0852C9.68542 17.4426 9.29525 16.6852 9.06575 15.7901H7.6428L7.66575 14.895H8.88214C8.85919 14.5967 8.83624 14.3212 8.83624 13.9999C8.83624 13.7475 8.85919 13.495 8.85919 13.2196H7.59689L7.61984 12.2786H8.99689C9.1346 11.7048 9.34116 11.1999 9.59362 10.7409C9.86902 10.2819 10.1674 9.84583 10.5346 9.52452C10.8789 9.18026 11.269 8.90485 11.7051 8.67534C12.1412 8.44583 12.5772 8.26222 13.0362 8.17042C13.4953 8.07862 13.9543 8.00977 14.4362 8.00977C15.951 8.00977 17.2362 8.42288 18.292 9.24911L17.5116 10.6491C16.6166 10.0294 15.6526 9.73108 14.5969 9.73108C13.8395 9.73108 13.151 9.96059 12.5313 10.3967C11.9116 10.8557 11.4756 11.4753 11.2002 12.2786H14.9182L14.8723 13.2196H11.0166C10.9936 13.4721 10.9707 13.7016 10.9707 13.954C10.9707 14.2753 10.9936 14.5737 11.0395 14.8491H14.6428L14.5969 15.7442H11.269C11.5674 16.5016 12.0035 17.0983 12.6461 17.5344C13.2887 17.9704 13.9772 18.177 14.7805 18.177C15.928 18.177 17.0067 17.7868 17.9707 17.0065L18.6362 18.5901C17.5117 19.5311 16.1805 19.9671 14.6198 19.9671Z" fill="white"/>
</g>
<defs>
<clipPath id="clip0_821_12368">
<rect width="28" height="28" fill="white"/>
</clipPath>
</defs>
</svg>
