<svg width="40" height="40" viewBox="0 0 40 40" fill="none" xmlns="http://www.w3.org/2000/svg">
<g clip-path="url(#clip0_740_2285)">
<g clip-path="url(#clip1_740_2285)">
<path fill-rule="evenodd" clip-rule="evenodd" d="M20 9.5C14.201 9.5 9.5 14.201 9.5 20C9.5 25.799 14.201 30.5 20 30.5C21.333 30.5 22.6062 30.252 23.7774 29.8002L24.3172 31.1998C22.9766 31.7169 21.5205 32 20 32C13.3726 32 8 26.6274 8 20C8 13.3726 13.3726 8 20 8C26.6274 8 32 13.3726 32 20H30.5C30.5 14.201 25.799 9.5 20 9.5Z" fill="#4AA879"/>
</g>
</g>
<defs>
<clipPath id="clip0_740_2285">
<rect width="40" height="40" rx="20" fill="white"/>
</clipPath>
<clipPath id="clip1_740_2285">
<rect width="24" height="24" fill="white" transform="translate(8 8)"/>
</clipPath>
</defs>
</svg>
