<svg width="211" height="50" viewBox="0 0 211 50" fill="none" xmlns="http://www.w3.org/2000/svg">
<path d="M63.5922 12.6293H58V36.9283H63.5922V12.6293Z" fill="white"/>
<path d="M79.8913 36.9283L70.08 23.1791L77.9409 12.6293H71.3935L63.5723 23.2399L73.1448 36.9283H79.8913Z" fill="white"/>
<path d="M82.9162 33.7898C80.5082 31.3801 79.2744 28.3832 79.2744 24.8194C79.2744 21.2555 80.5082 18.2586 82.9162 15.849C85.384 13.4393 88.3094 12.1838 91.8717 12.1838C95.3743 12.1838 98.3595 13.3988 100.827 15.849C103.235 18.2586 104.469 21.2555 104.469 24.8194V26.5001H84.369C84.7471 28.4845 85.6427 30.0639 87.0159 31.2181C88.3891 32.3723 90.0011 32.9596 91.8519 32.9596C94.1206 32.9596 95.9316 32.4331 97.3048 31.2789C97.9217 30.8536 98.4391 30.2664 98.9168 29.5982H104.27C103.613 31.1371 102.758 32.4938 101.703 33.5468C99.0561 36.1589 95.7724 37.4549 91.8917 37.4549C88.3692 37.4144 85.384 36.1994 82.9162 33.7898ZM84.6277 22.4097H99.1755C98.8969 20.81 98.1406 19.4736 96.847 18.3599C95.6132 17.2461 93.9614 16.6792 91.8717 16.6792C90.1204 16.6792 88.5483 17.2057 87.2348 18.2181C85.8616 19.2711 85.0059 20.6885 84.6277 22.4097Z" fill="white"/>
<path d="M105.046 12.6293H110.4L115.713 32.1495H118.36L124.191 12.6293H129.505L119.315 46H113.962L116.848 36.9283H111.773L105.046 12.6293Z" fill="white"/>
<path d="M131.216 17.1651V12.6293H146.719V17.1651H139.236V32.3925H146.998V36.9283H134.162V17.1651H131.216Z" fill="white"/>
<path d="M177.506 37.0701V12.6698H185.666L193.825 31.4206H194.92L203.079 12.6698H211V37.0701H206.064V22.6527L206.482 18.1168H206.064L198.144 35.4704H190.422L182.502 18.1168H182.084L182.502 22.6527V37.0701H177.506Z" fill="white"/>
<path d="M153.147 33.7898C150.68 31.3801 149.446 28.3832 149.446 24.8194C149.446 21.2555 150.68 18.2586 153.147 15.849C155.615 13.4393 158.64 12.1838 162.302 12.1838C165.904 12.1838 168.989 13.3988 171.456 15.849C173.924 18.2586 175.158 21.2555 175.158 24.8194C175.158 28.3832 173.924 31.3801 171.456 33.7898C168.989 36.1994 165.964 37.4549 162.302 37.4549C158.64 37.4144 155.615 36.1994 153.147 33.7898ZM156.849 18.8864C155.476 20.3848 154.759 22.3085 154.759 24.7586C154.759 27.2088 155.476 29.1527 156.849 30.6309C158.222 32.1091 160.033 32.8583 162.302 32.8583C164.571 32.8583 166.322 32.1293 167.755 30.6309C169.128 29.1325 169.844 27.2088 169.844 24.7586C169.844 22.3085 169.128 20.3645 167.755 18.8864C166.382 17.4082 164.571 16.6589 162.302 16.6589C160.013 16.6792 158.222 17.4487 156.849 18.8864Z" fill="white"/>
<path d="M147.794 11.4751V7H131.216V11.4751H147.794Z" fill="url(#paint0_linear_1908_8816)"/>
<path fill-rule="evenodd" clip-rule="evenodd" d="M4.05385 12.5026L21.5 2.36857L38.9461 12.5026H4.05385ZM0 12.5026V12.4888L21.5 0L43 12.4888V12.5026V37.4663L21.5386 49.9326L21.5 50L21.4614 49.9326L0 37.4663V12.5026ZM19.4251 46.3812L2.03791 36.2815V16.0568L19.4251 46.3812ZM23.5749 46.3812L40.9621 36.2815V16.0568L23.5749 46.3812ZM39.4707 14.5541L21.5 45.8962L3.52933 14.5541H39.4707Z" fill="white"/>
<defs>
<linearGradient id="paint0_linear_1908_8816" x1="131.216" y1="9.23754" x2="147.794" y2="9.23754" gradientUnits="userSpaceOnUse">
<stop stop-color="white"/>
<stop offset="0.375" stop-color="#F2F2F2"/>
<stop offset="1" stop-color="#EAEAEA" stop-opacity="0"/>
</linearGradient>
</defs>
</svg>
