<svg width="158" height="168" viewBox="0 0 158 168" fill="none" xmlns="http://www.w3.org/2000/svg">
<path d="M32 80.9944L79 108L32 27.0055V80.9944Z" fill="url(#paint0_linear_219_15467)"/>
<path d="M79 -6.10352e-05L32 27.0055H125.978L79 -6.10352e-05Z" fill="url(#paint1_linear_219_15467)"/>
<path d="M79 108L126 80.9944V27.0055L79 108Z" fill="url(#paint2_linear_219_15467)"/>
<path d="M32 27.0055L79 108L126 27.0055H32Z" fill="url(#paint3_linear_219_15467)"/>
<path d="M5.77499 133.774H0V158.696H5.77499V133.774Z" fill="#04091C"/>
<path d="M22.6067 158.696L12.4748 144.594L20.5926 133.774H13.8312L5.75443 144.656L15.6397 158.696H22.6067Z" fill="#04091C"/>
<path d="M25.7305 155.477C23.2437 153.005 21.9696 149.931 21.9696 146.276C21.9696 142.621 23.2437 139.547 25.7305 137.076C28.2789 134.604 31.2999 133.317 34.9787 133.317C38.5957 133.317 41.6784 134.563 44.2268 137.076C46.7136 139.547 47.9878 142.621 47.9878 146.276V148H27.2307C27.6212 150.035 28.5461 151.655 29.9641 152.839C31.3822 154.023 33.0468 154.625 34.9581 154.625C37.301 154.625 39.1712 154.085 40.5892 152.901C41.2263 152.465 41.7607 151.863 42.2539 151.178H47.7823C47.1041 152.756 46.2204 154.147 45.1311 155.227C42.3978 157.906 39.0068 159.236 34.9992 159.236C31.3616 159.194 28.2789 157.948 25.7305 155.477ZM27.4979 143.805H42.5211C42.2334 142.164 41.4524 140.793 40.1165 139.651C38.8423 138.509 37.1366 137.927 34.9787 137.927C33.1701 137.927 31.5466 138.467 30.1902 139.506C28.7721 140.586 27.8884 142.039 27.4979 143.805Z" fill="#04091C"/>
<path d="M48.5838 133.774H54.1121L59.5994 153.794H62.3327L68.3543 133.774H73.8416L63.3192 168H57.7908L60.7708 158.696H55.5302L48.5838 133.774Z" fill="#04091C"/>
<path d="M75.609 138.426V133.774H91.6186V138.426H83.8912V154.044H91.9063V158.696H78.6506V138.426H75.609Z" fill="#04091C"/>
<path d="M123.412 158.841V133.815H131.838L140.264 153.047H141.394L149.82 133.815H158V158.841H152.903V144.054L153.335 139.402H152.903L144.724 157.2H136.75L128.57 139.402H128.139L128.57 144.054V158.841H123.412Z" fill="#04091C"/>
<path d="M98.2568 155.477C95.7084 153.005 94.4342 149.931 94.4342 146.276C94.4342 142.621 95.7084 139.547 98.2568 137.076C100.805 134.604 103.929 133.317 107.71 133.317C111.43 133.317 114.616 134.563 117.164 137.076C119.713 139.547 120.987 142.621 120.987 146.276C120.987 149.931 119.713 153.005 117.164 155.477C114.616 157.948 111.492 159.236 107.71 159.236C103.929 159.194 100.805 157.948 98.2568 155.477ZM102.079 140.191C100.661 141.728 99.9214 143.701 99.9214 146.214C99.9214 148.727 100.661 150.721 102.079 152.237C103.497 153.753 105.368 154.521 107.71 154.521C110.053 154.521 111.862 153.774 113.342 152.237C114.76 150.7 115.499 148.727 115.499 146.214C115.499 143.701 114.76 141.707 113.342 140.191C111.924 138.675 110.053 137.906 107.71 137.906C105.347 137.927 103.497 138.716 102.079 140.191Z" fill="#04091C"/>
<path d="M92.7284 132.59V128H75.609V132.59H92.7284Z" fill="url(#paint4_linear_219_15467)"/>
<defs>
<linearGradient id="paint0_linear_219_15467" x1="85.5259" y1="108.036" x2="14.9506" y2="36.0257" gradientUnits="userSpaceOnUse">
<stop stop-color="#2C0DBD"/>
<stop offset="0.9971" stop-color="#43A1FE"/>
</linearGradient>
<linearGradient id="paint1_linear_219_15467" x1="85.4597" y1="-14.6235" x2="76.1987" y2="27.052" gradientUnits="userSpaceOnUse">
<stop offset="0.00288059" stop-color="#2535B3"/>
<stop offset="1" stop-color="#3D79EC"/>
</linearGradient>
<linearGradient id="paint2_linear_219_15467" x1="90.1102" y1="104.358" x2="129.807" y2="48.0617" gradientUnits="userSpaceOnUse">
<stop stop-color="#103288"/>
<stop offset="1" stop-color="#4558FF"/>
</linearGradient>
<linearGradient id="paint3_linear_219_15467" x1="82.6754" y1="85.0815" x2="59.4927" y2="33.4748" gradientUnits="userSpaceOnUse">
<stop offset="0.00288059" stop-color="#0D197A"/>
<stop offset="1" stop-color="#405CF1"/>
</linearGradient>
<linearGradient id="paint4_linear_219_15467" x1="75.609" y1="130.295" x2="92.7284" y2="130.295" gradientUnits="userSpaceOnUse">
<stop stop-color="#42A4FF"/>
<stop offset="0.375" stop-color="#4681F5"/>
<stop offset="1" stop-color="#4681F5" stop-opacity="0"/>
</linearGradient>
</defs>
</svg>
