<svg width="118" height="44" viewBox="0 0 118 44" fill="none" xmlns="http://www.w3.org/2000/svg">
<path d="M0 32.9977L19 43.9999L0 11.0022V32.9977Z" fill="url(#paint0_linear_718_16011)"/>
<path d="M19 0L0 11.0023H37.991L19 0Z" fill="url(#paint1_linear_718_16011)"/>
<path d="M19 43.9999L38 32.9977V11.0022L19 43.9999Z" fill="url(#paint2_linear_718_16011)"/>
<path d="M0 11.0022L19 43.9999L38 11.0022H0Z" fill="url(#paint3_linear_718_16011)"/>
<path d="M50.5585 15.5981H48V26.8131H50.5585V15.5981Z" fill="#04091C"/>
<path d="M58.0156 26.8131L53.5268 20.4673L57.1233 15.5981H54.1277L50.5494 20.4953L54.929 26.8131H58.0156Z" fill="#04091C"/>
<path d="M59.3996 25.3645C58.2979 24.2524 57.7334 22.8692 57.7334 21.2244C57.7334 19.5795 58.2979 18.1963 59.3996 17.0842C60.5286 15.972 61.8671 15.3926 63.4969 15.3926C65.0994 15.3926 66.4651 15.9533 67.5942 17.0842C68.6959 18.1963 69.2604 19.5795 69.2604 21.2244V22.0001H60.0643C60.2372 22.916 60.647 23.6449 61.2752 24.1776C61.9035 24.7103 62.641 24.9814 63.4878 24.9814C64.5258 24.9814 65.3543 24.7384 65.9826 24.2057C66.2648 24.0094 66.5016 23.7384 66.7201 23.43H69.1694C68.8689 24.1402 68.4774 24.7664 67.9948 25.2524C66.7838 26.458 65.2815 27.0561 63.506 27.0561C61.8944 27.0374 60.5286 26.4767 59.3996 25.3645ZM60.1826 20.1122H66.8385C66.711 19.3739 66.365 18.7571 65.7731 18.243C65.2086 17.729 64.4529 17.4674 63.4969 17.4674C62.6956 17.4674 61.9763 17.7103 61.3754 18.1776C60.7471 18.6636 60.3556 19.3178 60.1826 20.1122Z" fill="#04091C"/>
<path d="M69.5245 15.5981H71.9737L74.4048 24.6075H75.6158L78.2836 15.5981H80.7146L76.0528 31H73.6035L74.9238 26.8131H72.602L69.5245 15.5981Z" fill="#04091C"/>
<path d="M81.4977 17.6916V15.5981H88.5905V17.6916H85.167V24.7196H88.718V26.8131H82.8452V17.6916H81.4977Z" fill="#04091C"/>
<path d="M102.676 26.8786V15.6169H106.409L110.142 24.2711H110.643L114.376 15.6169H118V26.8786H115.742V20.2244L115.933 18.131H115.742L112.118 26.1403H108.585L104.962 18.131H104.77L104.962 20.2244V26.8786H102.676Z" fill="#04091C"/>
<path d="M91.5315 25.3645C90.4024 24.2524 89.8379 22.8692 89.8379 21.2244C89.8379 19.5795 90.4024 18.1963 91.5315 17.0842C92.6605 15.972 94.0445 15.3926 95.7198 15.3926C97.3678 15.3926 98.7791 15.9533 99.9082 17.0842C101.037 18.1963 101.602 19.5795 101.602 21.2244C101.602 22.8692 101.037 24.2524 99.9082 25.3645C98.7791 26.4767 97.3952 27.0561 95.7198 27.0561C94.0445 27.0374 92.6605 26.4767 91.5315 25.3645ZM93.225 18.486C92.5968 19.1776 92.269 20.0655 92.269 21.1963C92.269 22.3272 92.5968 23.2244 93.225 23.9066C93.8533 24.5889 94.6818 24.9346 95.7198 24.9346C96.7578 24.9346 97.559 24.5982 98.2146 23.9066C98.8429 23.215 99.1706 22.3272 99.1706 21.1963C99.1706 20.0655 98.8429 19.1683 98.2146 18.486C97.5864 17.8038 96.7578 17.458 95.7198 17.458C94.6727 17.4674 93.8533 17.8225 93.225 18.486Z" fill="#04091C"/>
<path d="M89.0822 15.0654V13H81.4977V15.0654H89.0822Z" fill="url(#paint4_linear_718_16011)"/>
<defs>
<linearGradient id="paint0_linear_718_16011" x1="21.6381" y1="44.0148" x2="-7.11839" y2="14.9004" gradientUnits="userSpaceOnUse">
<stop stop-color="#2C0DBD"/>
<stop offset="0.9971" stop-color="#43A1FE"/>
</linearGradient>
<linearGradient id="paint1_linear_718_16011" x1="21.6114" y1="-5.95768" x2="17.8117" y2="11.0087" gradientUnits="userSpaceOnUse">
<stop offset="0.00288059" stop-color="#2535B3"/>
<stop offset="1" stop-color="#3D79EC"/>
</linearGradient>
<linearGradient id="paint2_linear_718_16011" x1="23.4913" y1="42.516" x2="39.7061" y2="19.6993" gradientUnits="userSpaceOnUse">
<stop stop-color="#103288"/>
<stop offset="1" stop-color="#4558FF"/>
</linearGradient>
<linearGradient id="paint3_linear_718_16011" x1="20.4858" y1="34.6628" x2="10.9923" y2="13.693" gradientUnits="userSpaceOnUse">
<stop offset="0.00288059" stop-color="#0D197A"/>
<stop offset="1" stop-color="#405CF1"/>
</linearGradient>
<linearGradient id="paint4_linear_718_16011" x1="81.4977" y1="14.0327" x2="89.0822" y2="14.0327" gradientUnits="userSpaceOnUse">
<stop stop-color="#42A4FF"/>
<stop offset="0.375" stop-color="#4681F5"/>
<stop offset="1" stop-color="#4681F5" stop-opacity="0"/>
</linearGradient>
</defs>
</svg>
