<svg width="141" height="33" viewBox="0 0 141 33" fill="none" xmlns="http://www.w3.org/2000/svg">
<g clip-path="url(#clip0_227_14344)">
<path fill-rule="evenodd" clip-rule="evenodd" d="M5.81814 20.3807C5.81814 20.6521 6.03837 20.8722 6.30994 20.8722H11.1445C11.4161 20.8722 11.6363 20.6521 11.6363 20.3807V17.9652H14.0536C14.3251 17.9652 14.5454 17.7451 14.5454 17.4737V15.5496C14.5454 15.2782 14.3251 15.0582 14.0536 15.0582H6.30994C6.03837 15.0582 5.81814 15.2782 5.81814 15.5496V20.3807ZM5.81814 9.71898C5.81814 9.4476 5.59792 9.22754 5.32635 9.22754H0.491792C0.220223 9.22754 0 9.4476 0 9.71898V14.5501C0 14.8215 0.220223 15.0415 0.491792 15.0415H2.41728C2.68885 15.0415 2.90907 14.8215 2.90907 14.5501V12.1345H5.32635C5.59792 12.1345 5.81814 11.9145 5.81814 11.6431V9.71898ZM8.72722 27.1609C8.72722 26.8895 8.50699 26.6695 8.23542 26.6695H6.30994C6.03837 26.6695 5.81814 26.8895 5.81814 27.1609V29.085C5.81814 29.3564 6.03837 29.5765 6.30994 29.5765H8.23542C8.50699 29.5765 8.72722 29.3564 8.72722 29.085V27.1609ZM43.1443 9.22754H38.3097C38.0382 9.22754 37.8179 9.4476 37.8179 9.71898V11.6431C37.8179 11.9145 38.0382 12.1345 38.3097 12.1345H40.727V14.5501C40.727 14.8215 40.9472 15.0415 41.2188 15.0415H43.1443C43.4159 15.0415 43.6361 14.8215 43.6361 14.5501V9.71898C43.6361 9.4476 43.4159 9.22754 43.1443 9.22754ZM37.3261 15.0415H29.5825C29.3109 15.0415 29.0907 15.2616 29.0907 15.533V17.4571C29.0907 17.7284 29.3109 17.9485 29.5825 17.9485H31.9998V20.3641C31.9998 20.6354 32.22 20.8555 32.4916 20.8555H37.3261C37.5977 20.8555 37.8179 20.6354 37.8179 20.3641V15.533C37.8179 15.2616 37.5977 15.0415 37.3261 15.0415ZM34.4171 29.5931H31.9998V27.1776C31.9998 26.9062 31.7796 26.6861 31.508 26.6861H29.0907V21.3636C29.0907 21.0922 28.8705 20.8722 28.5989 20.8722H26.1817V15.5496C26.1817 15.2782 25.9614 15.0582 25.6899 15.0582H17.9462C17.6747 15.0582 17.4544 15.2782 17.4544 15.5496V20.8722H15.0372C14.7655 20.8722 14.5454 21.0922 14.5454 21.3636V26.6861H12.1281C11.8565 26.6861 11.6363 26.9062 11.6363 27.1776V29.5931H9.21901C8.94744 29.5931 8.72722 29.8132 8.72722 30.0846V32.0087C8.72722 32.2801 8.94744 32.5001 9.21901 32.5001H14.0536C14.3251 32.5001 14.5454 32.2801 14.5454 32.0087V29.5931H16.9626C17.2342 29.5931 17.4544 29.3731 17.4544 29.1017V23.7791H26.1817V29.1017C26.1817 29.3731 26.4019 29.5931 26.6734 29.5931H29.0907V32.0087C29.0907 32.2801 29.3109 32.5001 29.5825 32.5001H34.4171C34.6886 32.5001 34.9089 32.2801 34.9089 32.0087V30.0846C34.9089 29.8132 34.6886 29.5931 34.4171 29.5931ZM37.3261 26.6695H35.4007C35.1291 26.6695 34.9089 26.8895 34.9089 27.1609V29.085C34.9089 29.3564 35.1291 29.5765 35.4007 29.5765H37.3261C37.5977 29.5765 37.8179 29.3564 37.8179 29.085V27.1609C37.8179 26.8895 37.5977 26.6695 37.3261 26.6695Z" fill="black"/>
<path fill-rule="evenodd" clip-rule="evenodd" d="M12.1275 9.22722H31.5075C31.779 9.22722 31.9992 9.007 31.9992 8.73543V6.80994C31.9992 6.53828 31.779 6.31815 31.5075 6.31815H29.0902V3.90086C29.0902 3.6293 28.87 3.40907 28.5984 3.40907H26.1811V0.991792C26.1811 0.720223 25.9609 0.5 25.6893 0.5H17.9457C17.6741 0.5 17.4539 0.720223 17.4539 0.991792V3.40907H15.0366C14.765 3.40907 14.5448 3.6293 14.5448 3.90086V6.31815H12.1275C11.856 6.31815 11.6357 6.53828 11.6357 6.80994V8.73543C11.6357 9.007 11.856 9.22722 12.1275 9.22722Z" fill="#1BEDBA"/>
<path fill-rule="evenodd" clip-rule="evenodd" d="M93.8523 14.7523C92.3219 14.7523 90.9394 15.3819 89.9667 16.3915C89.0163 15.378 87.6626 14.7445 86.1623 14.7445C85.3205 14.7445 84.4616 15.0527 83.7992 15.4981V15.3505C83.7992 15.1376 83.6225 14.9757 83.4169 14.9757H81.2827C81.0785 14.9757 80.9004 15.1376 80.9004 15.3505V25.9827C80.9004 26.1956 81.0772 26.3575 81.2827 26.3575H83.4221C83.6264 26.3575 83.8044 26.1956 83.8044 25.9827V19.9456C83.8044 18.6447 84.8609 17.5919 86.1623 17.5919C87.4649 17.5919 88.5201 18.646 88.5201 19.9456V25.9827C88.5201 26.1956 88.6968 26.3575 88.9024 26.3575H90.9918C90.997 26.3575 91.001 26.3575 91.0036 26.3575H91.0507C91.2549 26.3575 91.433 26.1956 91.433 25.9827V19.9495C91.433 18.6551 92.5117 17.5971 93.8523 17.5971C95.1929 17.5971 96.2717 18.6551 96.2717 19.9495V25.9814C96.2717 26.1943 96.4484 26.3562 96.654 26.3562H98.801C99.0066 26.3562 99.1833 26.1943 99.1833 25.9814V19.9495C99.182 17.0747 96.7914 14.7523 93.8523 14.7523ZM109.858 20.4628C109.043 19.9678 107.997 19.7301 107.085 19.5237L107.067 19.5198C106.405 19.3696 105.823 19.2364 105.404 19.0404C104.989 18.8471 104.801 18.6251 104.801 18.3194C104.801 18.0556 104.9 17.8218 105.136 17.6376C105.378 17.4482 105.779 17.3019 106.398 17.2654C107.453 17.2654 108.27 17.2902 108.823 17.315C109.1 17.3268 109.311 17.3398 109.451 17.349C109.522 17.3542 109.575 17.3568 109.611 17.3594C109.629 17.3607 109.642 17.362 109.65 17.362L109.659 17.3633H109.662L109.671 17.3646H109.68C109.844 17.3646 109.993 17.3333 110.095 17.2275C110.185 17.1334 110.204 17.0133 110.212 16.9545C110.212 16.9506 110.213 16.9467 110.213 16.9441C110.217 16.9192 110.22 16.9009 110.223 16.884L110.229 16.8618V15.5517C110.229 15.3923 110.218 15.246 110.157 15.1337C110.081 14.994 109.954 14.9495 109.852 14.9273L109.842 14.926L109.833 14.9247H109.829L109.819 14.9234C109.81 14.9221 109.797 14.9208 109.78 14.9195C109.744 14.9156 109.692 14.9104 109.623 14.9038C109.482 14.8908 109.273 14.8738 108.99 14.8568C108.425 14.8228 107.566 14.7889 106.39 14.7889H106.386H106.382C104.877 14.8451 103.735 15.263 102.967 15.9239C102.196 16.5862 101.816 17.4796 101.816 18.4461C101.816 19.0822 101.963 19.6034 102.222 20.0331C102.48 20.4615 102.842 20.7868 103.256 21.0415C104.072 21.5417 105.116 21.7834 106.026 21.9937L106.045 21.9976C106.708 22.1504 107.291 22.2862 107.71 22.4848C108.124 22.6807 108.316 22.9067 108.316 23.2215C108.316 23.484 108.194 23.7178 107.9 23.8967C107.593 24.0822 107.097 24.2063 106.367 24.2063C105.537 24.2063 104.631 24.1175 103.929 24.0274C103.578 23.983 103.281 23.9372 103.07 23.9033C102.965 23.8863 102.882 23.8719 102.825 23.8628C102.81 23.8602 102.796 23.8576 102.785 23.8563C102.776 23.8549 102.766 23.8536 102.76 23.8523L102.744 23.8497L102.739 23.8484L102.721 23.8445H102.702C102.553 23.8445 102.412 23.8719 102.312 23.9725C102.224 24.06 102.205 24.1763 102.197 24.2298C102.196 24.2337 102.196 24.2377 102.196 24.2403C102.19 24.269 102.186 24.2873 102.182 24.3056L102.177 24.3265L102.095 25.805V25.8103C102.095 25.9069 102.109 26.0219 102.162 26.1251C102.215 26.2348 102.312 26.3327 102.46 26.3706L102.465 26.3719L102.471 26.3732L102.477 26.3393C102.471 26.3732 102.471 26.3732 102.471 26.3732L102.476 26.3745C102.478 26.3758 102.484 26.3758 102.49 26.3771C102.502 26.3798 102.52 26.3824 102.544 26.3876C102.591 26.3967 102.659 26.4085 102.749 26.4229C102.93 26.4516 103.193 26.4895 103.534 26.5287C104.212 26.6057 105.191 26.6815 106.395 26.6815H106.405C106.553 26.6828 107.756 26.6919 108.93 26.2517C109.519 26.031 110.113 25.6927 110.561 25.1729C111.013 24.6491 111.305 23.9503 111.305 23.0334C111.305 22.4038 111.157 21.8866 110.898 21.4608C110.636 21.0349 110.273 20.7136 109.858 20.4628ZM133.985 14.9822C132.79 14.9822 131.673 15.3179 130.735 15.8991V11.0277C130.735 10.8148 130.558 10.6528 130.352 10.6528H128.21C128.006 10.6528 127.828 10.8148 127.828 11.0277V25.9853C127.828 26.1982 128.005 26.3602 128.21 26.3602H130.352C130.557 26.3602 130.735 26.1982 130.735 25.9853V25.4876C131.62 26.1773 132.793 26.6802 133.985 26.6802C137.318 26.6802 140.031 24.0678 140.031 20.8312C140.031 17.5945 137.318 14.9822 133.985 14.9822ZM133.985 23.8563C132.257 23.8563 130.855 22.5018 130.855 20.8312C130.855 19.1606 132.256 17.8061 133.985 17.8061C135.713 17.8061 137.115 19.1606 137.115 20.8312C137.115 22.5018 135.715 23.8563 133.985 23.8563ZM124.533 14.9822H122.386C122.18 14.9822 122.003 15.1442 122.003 15.3571V21.5404C122.003 22.8165 120.927 23.8628 119.584 23.8628C119.578 23.8628 119.572 23.8628 119.566 23.8628C119.559 23.8628 119.554 23.8628 119.547 23.8628C118.204 23.8628 117.128 22.8165 117.128 21.5404V15.3571C117.128 15.1442 116.951 14.9822 116.746 14.9822H114.599C114.393 14.9822 114.216 15.1442 114.216 15.3571V21.5404C114.216 24.3852 116.61 26.6789 119.547 26.6789C119.554 26.6789 119.559 26.6789 119.566 26.6789C119.572 26.6789 119.578 26.6789 119.584 26.6789C122.521 26.6789 124.915 24.3852 124.915 21.5404V15.3571C124.915 15.1442 124.738 14.9822 124.533 14.9822ZM62.9433 20.4628C62.1277 19.9678 61.0817 19.7301 60.1705 19.5237L60.1521 19.5198C59.4897 19.3696 58.9084 19.2364 58.4895 19.0404C58.0745 18.8471 57.886 18.6251 57.886 18.3194C57.886 18.0556 57.9855 17.8218 58.2211 17.6376C58.4633 17.4482 58.8639 17.3019 59.4831 17.2654C60.5383 17.2654 61.3553 17.2902 61.9077 17.315C62.1853 17.3268 62.3961 17.3398 62.5361 17.349C62.6068 17.3542 62.6605 17.3568 62.6959 17.3594C62.7142 17.3607 62.7273 17.362 62.7351 17.362L62.7443 17.3633H62.7469L62.7561 17.3646H62.7653C62.9289 17.3646 63.0781 17.3333 63.1803 17.2275C63.2706 17.1334 63.2889 17.0133 63.2968 16.9545C63.2968 16.9506 63.2981 16.9467 63.2981 16.9441C63.302 16.9192 63.3046 16.9009 63.3086 16.884L63.3138 16.8618V15.5517C63.3138 15.3923 63.3033 15.246 63.2418 15.1337C63.1659 14.994 63.0389 14.9495 62.9368 14.9273L62.9276 14.926L62.9184 14.9247H62.9145L62.904 14.9234C62.8949 14.9221 62.8818 14.9208 62.8647 14.9195C62.8294 14.9156 62.777 14.9104 62.7076 14.9038C62.5676 14.8908 62.3581 14.8738 62.0753 14.8568C61.5098 14.8228 60.6509 14.7889 59.4753 14.7889H59.4714H59.4674C57.9619 14.8451 56.8203 15.263 56.0518 15.9239C55.282 16.5862 54.9023 17.4796 54.9023 18.4461C54.9023 19.0822 55.049 19.6034 55.3082 20.0331C55.5661 20.4615 55.9287 20.7868 56.3424 21.0415C57.1581 21.5417 58.2028 21.7834 59.1127 21.9937L59.131 21.9976C59.7947 22.1504 60.3773 22.2862 60.7963 22.4848C61.21 22.6807 61.4024 22.9067 61.4024 23.2215C61.4024 23.484 61.2806 23.7178 60.9861 23.8967C60.6797 24.0822 60.1836 24.2063 59.453 24.2063C58.623 24.2063 57.7171 24.1175 57.0154 24.0274C56.6645 23.983 56.3673 23.9372 56.1565 23.9033C56.0518 23.8863 55.968 23.8719 55.9117 23.8628C55.896 23.8602 55.8829 23.8576 55.8711 23.8563C55.862 23.8549 55.8528 23.8536 55.8463 23.8523L55.8305 23.8497L55.8253 23.8484L55.807 23.8445H55.7873C55.6381 23.8445 55.4967 23.8719 55.3972 23.9725C55.3095 24.06 55.2899 24.1763 55.282 24.2298C55.2807 24.2337 55.2807 24.2377 55.2807 24.2403C55.2755 24.269 55.2715 24.2873 55.2676 24.3056L55.2624 24.3265L55.1773 25.8037V25.809C55.1773 25.9056 55.1917 26.0206 55.244 26.1237C55.2977 26.2335 55.3946 26.3314 55.5425 26.3693L55.5478 26.3706L55.553 26.3719L55.5595 26.338C55.553 26.3719 55.553 26.3719 55.553 26.3719H55.5543L55.5582 26.3732C55.5609 26.3745 55.5661 26.3745 55.5726 26.3758C55.5844 26.3784 55.6028 26.3811 55.6263 26.3863C55.6734 26.3954 55.7415 26.4072 55.8319 26.4215C56.0125 26.4503 56.2757 26.4882 56.6161 26.5273C57.2942 26.6044 58.2735 26.6802 59.4779 26.6802H59.4871C59.635 26.6815 60.8381 26.6906 62.0125 26.2504C62.6016 26.0297 63.196 25.6914 63.6437 25.1716C64.0954 24.6478 64.3873 23.949 64.3873 23.0321C64.3873 22.4025 64.2394 21.8853 63.9802 21.4594C63.7209 21.0349 63.3583 20.7136 62.9433 20.4628ZM77.6095 14.9822H75.4625C75.2569 14.9822 75.0802 15.1442 75.0802 15.3571V21.5404C75.0802 22.8165 74.0041 23.8628 72.6608 23.8628C72.6543 23.8628 72.6491 23.8628 72.6425 23.8628C72.636 23.8628 72.6307 23.8628 72.6242 23.8628C71.281 23.8628 70.2048 22.8165 70.2048 21.5404V15.3571C70.2048 15.1442 70.0281 14.9822 69.8225 14.9822H67.6755C67.47 14.9822 67.2932 15.1442 67.2932 15.3571V21.5404C67.2932 24.3852 69.6864 26.6789 72.6242 26.6789C72.6307 26.6789 72.636 26.6789 72.6425 26.6789C72.6491 26.6789 72.6543 26.6789 72.6608 26.6789C75.5973 26.6789 77.9918 24.3852 77.9918 21.5404V15.3571C77.9918 15.1442 77.8151 14.9822 77.6095 14.9822Z" fill="black"/>
</g>
<defs>
<clipPath id="clip0_227_14344">
<rect width="141" height="32" fill="white" transform="translate(0 0.5)"/>
</clipPath>
</defs>
</svg>
