<svg width="28" height="28" viewBox="0 0 28 28" fill="none" xmlns="http://www.w3.org/2000/svg">
<g clip-path="url(#clip0_821_12389)">
<path d="M16.4329 16.1803C16.2952 15.9737 16.0657 15.813 15.7673 15.6294C15.469 15.4688 15.0788 15.2852 14.5968 15.1016V19.6917C16.0427 19.5081 16.7772 18.7737 16.7772 17.4425C16.7772 17.1442 16.7542 16.9147 16.7083 16.7311C16.6624 16.5475 16.5936 16.3868 16.4329 16.1803Z" fill="#0B223D"/>
<path d="M14 0C6.26557 0 0 6.26557 0 14C0 21.7344 6.26557 28 14 28C21.7344 28 28 21.7344 28 14C28 6.26557 21.7344 0 14 0ZM19.4164 19.5541C19.141 20.1508 18.7508 20.6328 18.2459 20.977C17.741 21.3443 17.1902 21.6197 16.5934 21.8033C15.9967 22.0098 15.3311 22.1246 14.5967 22.1705V24.4197H13.4721V22.1934C12.4164 22.1475 11.4295 21.9639 10.4885 21.6426C9.54754 21.3213 8.79016 20.8852 8.23934 20.3344L9.45574 18.2689C9.93771 18.659 10.5803 18.9803 11.3377 19.2557C12.0951 19.5311 12.8066 19.6918 13.4721 19.7377V14.7344C13.3803 14.7115 13.2197 14.6656 13.0361 14.5967C12.8525 14.5279 12.6689 14.482 12.5311 14.4361C12.3705 14.3902 12.2328 14.3443 12.118 14.2984C10.7639 13.7934 9.77705 13.1738 9.15738 12.4852C8.5377 11.7967 8.23934 10.8328 8.23934 9.63934C8.23934 8.2623 8.72131 7.20656 9.68525 6.42623C10.6492 5.6459 11.9115 5.23279 13.4721 5.16393V3.53443H14.5967V5.16393C15.8361 5.20984 16.823 5.37049 17.5574 5.6459C18.2918 5.94426 18.9803 6.40328 19.6689 7.0459L18.2 8.95082C17.3049 8.10164 16.1115 7.66557 14.5967 7.61967V12.2098C15.4689 12.5082 16.0197 12.6918 16.2492 12.7607C17.6033 13.2885 18.5213 13.9082 19.0492 14.5967C19.577 15.2852 19.8525 16.2492 19.8525 17.4885C19.8525 18.2918 19.7148 18.9803 19.4164 19.5541Z" fill="#0B223D"/>
<path d="M11.3147 9.52454C11.3147 10.1213 11.4524 10.5573 11.7278 10.8786C12.0032 11.2 12.577 11.5213 13.495 11.8426V7.68848C12.8294 7.78028 12.3016 7.98684 11.9114 8.2852C11.4983 8.58356 11.3147 8.99667 11.3147 9.52454Z" fill="#0B223D"/>
</g>
<defs>
<clipPath id="clip0_821_12389">
<rect width="28" height="28" fill="white"/>
</clipPath>
</defs>
</svg>
