<svg width="28" height="28" viewBox="0 0 28 28" fill="none" xmlns="http://www.w3.org/2000/svg">
<g clip-path="url(#clip0_821_12408)">
<mask id="mask0_821_12408" style="mask-type:alpha" maskUnits="userSpaceOnUse" x="0" y="0" width="28" height="28">
<path d="M3.05176e-05 0H28V28H3.05176e-05V0Z" fill="white"/>
</mask>
<g mask="url(#mask0_821_12408)">
<path fill-rule="evenodd" clip-rule="evenodd" d="M14 0C21.7322 0 28 6.26786 28 14C28 21.7315 21.7322 28 14 28C6.26789 28 3.05176e-05 21.7315 3.05176e-05 14C3.05176e-05 6.26786 6.26789 0 14 0Z" fill="#2775CA"/>
</g>
<path fill-rule="evenodd" clip-rule="evenodd" d="M11.3756 23.7333C11.3756 24.0626 11.1177 24.2497 10.7992 24.1503C6.56625 22.7999 3.49722 18.8308 3.49722 14.1475C3.49722 9.4643 6.56625 5.49498 10.7992 4.14462C11.1177 4.04582 11.3756 4.23228 11.3756 4.5616V5.37455C11.3756 5.59378 11.2057 5.85182 10.9968 5.92326C7.64775 7.15303 5.24865 10.3703 5.24865 14.1419C5.24865 17.9135 7.64775 21.1314 10.9968 22.3605C11.2057 22.4375 11.3756 22.6898 11.3756 22.9099V23.7333Z" fill="white"/>
<path fill-rule="evenodd" clip-rule="evenodd" d="M14.873 20.7086C14.873 20.9504 14.6754 21.148 14.4339 21.148H13.5608C13.3193 21.148 13.1217 20.9504 13.1217 20.7086V19.3253C11.211 19.0674 10.2779 17.9966 10.0253 16.5419C9.98124 16.2945 10.1788 16.0695 10.4315 16.0695H11.4307C11.6393 16.0695 11.8151 16.2179 11.859 16.4262C12.0458 17.2937 12.5453 17.9581 14.0769 17.9581C15.2079 17.9581 16.0097 17.3267 16.0097 16.3828C16.0097 15.4381 15.5373 15.0814 13.8793 14.8067C11.4307 14.4773 10.2724 13.736 10.2724 11.8145C10.2724 10.3322 11.3925 9.17945 13.1273 8.93222V7.57613C13.1273 7.33447 13.325 7.13672 13.5664 7.13672H14.4394C14.6809 7.13672 14.8785 7.33447 14.8785 7.57613V8.97072C16.2895 9.22367 17.1844 10.0247 17.4755 11.3533C17.5303 11.6062 17.3327 11.8418 17.0748 11.8418H16.1522C15.9546 11.8418 15.79 11.7099 15.7297 11.5179C15.4826 10.6728 14.8785 10.3106 13.8298 10.3106C12.6715 10.3106 12.073 10.8704 12.073 11.6554C12.073 12.4844 12.4136 12.9014 14.1925 13.1599C16.5969 13.4892 17.8379 14.1754 17.8379 16.2237C17.8379 17.7772 16.6849 19.0345 14.8785 19.3253V20.7086H14.873Z" fill="white"/>
<path fill-rule="evenodd" clip-rule="evenodd" d="M17.2008 24.1513C16.8826 24.2507 16.6244 24.0637 16.6244 23.7343V22.922C16.6244 22.6804 16.7727 22.4554 17.0032 22.3727C20.3522 21.1429 22.7513 17.9256 22.7513 14.154C22.7513 10.3825 20.3522 7.16518 17.0032 5.93541C16.7946 5.85841 16.6244 5.60609 16.6244 5.38607V4.57375C16.6244 4.24443 16.8826 4.05241 17.2008 4.15614C21.4337 5.50729 24.5028 9.47645 24.5028 14.1596C24.4975 18.8316 21.4337 22.7954 17.2008 24.1513Z" fill="white"/>
</g>
<defs>
<clipPath id="clip0_821_12408">
<rect width="28" height="28" fill="white"/>
</clipPath>
</defs>
</svg>
