<svg width="28" height="28" viewBox="0 0 28 28" fill="none" xmlns="http://www.w3.org/2000/svg">
<g clip-path="url(#clip0_821_12357)">
<path d="M27.975 13.9948C27.975 21.6885 21.7384 27.9251 14.0447 27.9251C6.35124 27.9251 0.114349 21.6885 0.114349 13.9948C0.114349 6.30121 6.35124 0.0644531 14.0447 0.0644531C21.7384 0.0644531 27.975 6.30121 27.975 13.9948Z" fill="#1BA27A"/>
<path d="M20.5825 7.08887H7.39185V10.2733H12.3949V14.9539H15.5794V10.2733H20.5825V7.08887Z" fill="white"/>
<path d="M14.0177 15.4525C9.87896 15.4525 6.52356 14.7974 6.52356 13.9893C6.52356 13.1814 9.87883 12.5262 14.0177 12.5262C18.1564 12.5262 21.5116 13.1814 21.5116 13.9893C21.5116 14.7974 18.1564 15.4525 14.0177 15.4525ZM22.4323 14.2333C22.4323 13.1913 18.665 12.3467 14.0177 12.3467C9.37051 12.3467 5.60291 13.1913 5.60291 14.2333C5.60291 15.1509 8.52424 15.9154 12.3953 16.0847V22.8039H15.5795V16.0874C19.4805 15.9233 22.4323 15.1556 22.4323 14.2333Z" fill="white"/>
</g>
<defs>
<clipPath id="clip0_821_12357">
<rect width="28" height="28" fill="white"/>
</clipPath>
</defs>
</svg>
