<svg width="48" height="28" viewBox="0 0 48 28" fill="none" xmlns="http://www.w3.org/2000/svg">
<path d="M22.75 5.25H5.25C4.55381 5.25 3.88613 5.52656 3.39384 6.01884C2.90156 6.51113 2.625 7.17881 2.625 7.875V20.125C2.625 20.8212 2.90156 21.4889 3.39384 21.9812C3.88613 22.4734 4.55381 22.75 5.25 22.75H22.75C23.4462 22.75 24.1139 22.4734 24.6062 21.9812C25.0984 21.4889 25.375 20.8212 25.375 20.125V7.875C25.375 7.17881 25.0984 6.51113 24.6062 6.01884C24.1139 5.52656 23.4462 5.25 22.75 5.25ZM4.375 10.5H23.625V12.25H18.2864C17.883 12.2502 17.4921 12.3898 17.1798 12.6451C16.8674 12.9004 16.6529 13.2558 16.5725 13.6511C16.4499 14.2422 16.1274 14.7729 15.6592 15.154C15.191 15.535 14.6058 15.7431 14.0022 15.7431C13.3985 15.7431 12.8133 15.535 12.3452 15.154C11.877 14.7729 11.5544 14.2422 11.4319 13.6511C11.3513 13.2551 11.1361 12.8991 10.8229 12.6437C10.5097 12.3883 10.1177 12.2492 9.71359 12.25H4.375V10.5ZM5.25 7H22.75C22.9821 7 23.2046 7.09219 23.3687 7.25628C23.5328 7.42038 23.625 7.64294 23.625 7.875V8.75H4.375V7.875C4.375 7.64294 4.46719 7.42038 4.63128 7.25628C4.79538 7.09219 5.01794 7 5.25 7ZM22.75 21H5.25C5.01794 21 4.79538 20.9078 4.63128 20.7437C4.46719 20.5796 4.375 20.3571 4.375 20.125V14H9.7125C9.91385 14.9884 10.4506 15.8769 11.2318 16.515C12.013 17.1531 12.9907 17.5017 13.9995 17.5017C15.0082 17.5017 15.9859 17.1531 16.7671 16.515C17.5483 15.8769 18.0851 14.9884 18.2864 14H23.625V20.125C23.625 20.3571 23.5328 20.5796 23.3687 20.7437C23.2046 20.9078 22.9821 21 22.75 21Z" fill="black"/>
<path d="M45.5306 12.5307L40.5306 17.5307C40.461 17.6007 40.3782 17.6561 40.287 17.694C40.1958 17.7318 40.0981 17.7513 39.9994 17.7513C39.9007 17.7513 39.8029 17.7318 39.7118 17.694C39.6206 17.6561 39.5378 17.6007 39.4681 17.5307L34.4681 12.5307C34.3272 12.3898 34.2481 12.1987 34.2481 11.9995C34.2481 11.8002 34.3272 11.6091 34.4681 11.4682C34.609 11.3273 34.8001 11.2482 34.9994 11.2482C35.1986 11.2482 35.3897 11.3273 35.5306 11.4682L40 15.9376L44.4694 11.4676C44.6103 11.3267 44.8014 11.2476 45.0006 11.2476C45.1999 11.2476 45.391 11.3267 45.5319 11.4676C45.6728 11.6085 45.7519 11.7996 45.7519 11.9989C45.7519 12.1981 45.6728 12.3892 45.5319 12.5301L45.5306 12.5307Z" fill="black"/>
</svg>
